<?xml version="1.0" encoding="UTF-8"?><svg id="Layer_1" xmlns="http://www.w3.org/2000/svg" viewBox="0 0 5015.85 7344.56"><defs><style>.cls-1,.cls-2,.cls-3,.cls-4{fill:#efc71b;}.cls-2,.cls-3,.cls-4{font-family:ArialMT, Arial;font-size:11.38px;}.cls-2,.cls-3,.cls-4,.cls-5{isolation:isolate;}.cls-3{letter-spacing:-.05em;}.cls-4{letter-spacing:-.01em;}</style></defs><g class="cls-5"><text class="cls-3" transform="translate(4033.34 1112.65)"><tspan x="0" y="0">L</tspan></text><text class="cls-2" transform="translate(4038.55 1112.65)"><tspan x="0" y="0">o</tspan></text><text class="cls-4" transform="translate(4044.79 1112.65)"><tspan x="0" y="0">r</tspan></text><text class="cls-2" transform="translate(4048.4 1112.65)"><tspan x="0" y="0">em ipsum</tspan></text></g><path class="cls-1" d="m4850.93,7341.34l-3.21-1782.96-1879.33-1882.55c-204.53,1.07-409.06,2.14-613.59,3.21,689.63,691.77,1379.25,1383.54,2068.88,2075.31l-3.21,1162.94c-995.89-1.07-1991.77-2.14-2987.66-3.21,163.84-167.05,327.68-334.11,491.52-501.15-110.3-109.23-220.6-218.45-330.89-327.68-404.78,419.77-809.56,839.55-1214.34,1259.32,1490.62-1.07,2981.24-2.14,4471.86-3.21h0Z"/><path class="cls-1" d="m3090.46,936.6c-93.8,16.15-233.78,40.81-411.2,98.52-76.1,24.76-376.31,126.52-720.68,364.09-127,87.62-520.57,373.46-855.07,890.41-114.21,176.51-192.06,334.41-242.55,448.15-116.73-116.19-233.44-232.37-350.17-348.56,64.14-129.56,159.81-304.38,295.56-497.95,133.17-189.89,412.57-580.53,918.78-922,164.58-111.02,518.65-328.48,1019.98-462.6,417.55-111.71,759.77-118.13,920.4-115.66,362.47,5.58,662.39,69.72,875.42,131.72,99.05-110.3,198.11-220.6,297.16-330.89-446.08-125.42-829.41-167.83-1106.72-181.5-286.86-14.15-607.91-27.75-1018.38,61.04-452.47,97.88-769.22,267.3-950.92,366.23-543.87,296.12-879.42,645.18-987.86,762.97-89.53,97.27-356.38,397.69-591.1,856.14-82.91,161.92-142.1,305.06-183.12,414.42,1310.18,1316.07,2620.36,2632.14,3930.55,3948.21v-626.44c-909.68-912.9-1819.37-1825.79-2729.05-2738.69,74.81-193.28,195.73-443.2,393.54-700.33,118.01-153.4,393.06-503.8,883.45-754.94,550.86-282.11,1069.32-283.42,1320.35-266.64,230.77,616.28,461.54,1232.55,692.3,1848.82-104.41,104.94-208.81,209.88-313.22,314.83-202.39-203.46-404.78-406.93-607.17-610.38-668.75-.36-1337.49-.71-2006.23-1.07,142.42,143.13,284.84,286.27,427.26,429.41,449.4.36,898.8.71,1348.2,1.07,273.78,274.85,547.56,549.7,821.34,824.56,284.84-286.27,569.69-572.55,854.54-858.82-317.69-792.42-635.37-1584.86-953.05-2377.28-412.41-39.99-745.3-5.89-972.33,33.19v-.03Z"/><path class="cls-1" d="m3108.66,6419.34c-668.21-671.06-1336.41-1342.13-2004.62-2013.19-.71-132.79-1.43-265.57-2.14-398.36-142.06-144.2-284.13-288.42-426.19-432.62v1025.87c591.82,605.38,1183.64,1210.78,1775.46,1816.16,219.16.71,438.34,1.43,657.5,2.14h0Z"/></svg>