<?xml version="1.0" encoding="UTF-8"?><svg id="Layer_1" xmlns="http://www.w3.org/2000/svg" viewBox="0 0 1900.8 864"><defs><style>.cls-1{font-family:Helvetica-Bold, Helvetica;font-size:130px;font-weight:700;}.cls-1,.cls-2,.cls-3{fill:#4c2d82;}.cls-4{fill:#fff;}.cls-3{font-family:ArialMT, Arial;font-size:100px;}</style></defs><rect class="cls-2" x="0" width="1900.8" height="864"/><path class="cls-4" d="m0,0v864h1900.8V0H0Zm558.08,744.31c-141.66,0-283.32,0-424.98,0,39.57-36.81,79.14-73.63,118.71-110.44,9.37,8.75,18.74,17.51,28.1,26.26-16.65,15.45-33.29,30.91-49.94,46.36h287.51c-.01-33.9-.03-67.8-.04-101.7-65.62-61.03-131.24-122.06-196.86-183.1,19.77,0,39.54.01,59.3.02,59.4,55.22,118.8,110.44,178.19,165.66v156.95Zm-165.68-78.48c-18.74-.01-37.48-.03-56.23-.04-58.32-54.26-116.63-108.52-174.95-162.79v-90.05c13.53,12.57,27.06,25.15,40.58,37.72v37.84l190.59,177.32Zm99.98-203.46c-26-24.23-52.01-48.45-78.01-72.68h-128.24c-13.55-12.59-27.11-25.19-40.66-37.78h187.54c19.85,19.37,39.7,38.74,59.55,58.11,11.44-10.67,22.87-21.35,34.31-32.02-22.93-54.24-45.85-108.48-68.78-162.72-22.29-2.18-63.65-3.17-109.95,14.82-15.22,5.92-45.07,19.36-74.2,46.08-5.27,4.84-13.31,12.67-22.19,23.38-21.78,26.27-33.81,52.01-40.53,69.82,86.47,80.39,172.94,160.78,259.41,241.17v52.35L97.23,315.49c7.14-17.62,18.31-40.71,35.8-65.28,20.01-28.11,39.61-45.94,53.2-58.16,11.42-10.28,32.16-28.73,62.46-46.42,46.56-27.18,87.96-36.34,109.33-40.88,67.17-14.29,119.52-7.32,131.12-5.65,29.02,4.19,52.59,11.34,69.01,17.28-10.47,9.75-20.93,19.5-31.4,29.25-4.32-1.56-10.76-3.76-18.69-5.9-42.43-11.47-77.63-8.01-100.04-5.84-8.49.82-39.64,4.17-78.18,17.45-44.2,15.23-75.33,35.66-90.55,46.59-24.22,17.39-39.42,33.16-43.71,37.69-6.34,6.7-16.97,18.6-28.21,34.98-9.41,13.72-16.55,26.65-21.94,37.78,11.01,10.22,22.02,20.44,33.04,30.66,1.81-4.08,4.4-9.64,7.79-16.09,15.86-30.17,34.04-50.85,43.71-60.99,8.97-9.4,34.57-34.88,74.96-55.31,7.97-4.03,27.03-13.18,53.11-20.41,19.68-5.46,35.68-7.69,43.79-8.64,19.67-2.3,48.89-3.57,84.28,2.8,29.2,68.81,58.39,137.62,87.59,206.43-27.11,25.19-54.21,50.37-81.32,75.56Z"/><text class="cls-1" transform="translate(632.34 286.01)"><tspan x="0" y="0">solid</tspan></text><text/><text class="cls-1" transform="translate(635.59 434.51)"><tspan x="0" y="0">risk</tspan></text><text class="cls-1" transform="translate(635.59 583)"><tspan x="0" y="0">advisors</tspan></text><text class="cls-3" transform="translate(639.22 702.73)"><tspan x="0" y="0">do it better</tspan></text></svg>