<?xml version="1.0" encoding="UTF-8"?><svg id="Layer_1" xmlns="http://www.w3.org/2000/svg" viewBox="0 0 8640 8640"><defs><style>.cls-1{letter-spacing:-.01em;}.cls-2{fill:#443180;}.cls-3{letter-spacing:-.01em;}.cls-4{fill:#231f20;font-family:MyriadPro-Regular, 'Myriad Pro';font-size:12px;}</style></defs><text class="cls-4" transform="translate(5744.88 1620.4)"><tspan class="cls-3" x="0" y="0">L</tspan><tspan x="5.5" y="0">o</tspan><tspan class="cls-1" x="12.08" y="0">r</tspan><tspan x="15.89" y="0">em ipsum</tspan></text><path class="cls-2" d="m6607.19,8189.72l-3.39-1880.47-1982.11-1985.5c-215.72,1.13-431.43,2.26-647.15,3.39,727.34,729.6,1454.68,1459.2,2182.02,2188.8l-3.39,1226.54c-1050.35-1.13-2100.7-2.26-3151.05-3.39,172.8-176.19,345.6-352.38,518.4-528.56-116.33-115.2-232.66-230.4-348.99-345.6-426.92,442.73-853.83,885.46-1280.75,1328.19,1572.14-1.13,3144.28-2.26,4716.41-3.39Z"/><path class="cls-2" d="m4750.44,1434.72c-98.93,17.03-246.56,43.04-433.69,103.91-80.26,26.11-396.89,133.44-760.09,384-133.95,92.41-549.04,393.88-901.83,939.1-120.46,186.16-202.56,352.7-255.81,472.66-123.11-122.54-246.21-245.08-369.32-367.62,67.65-136.65,168.55-321.03,311.72-525.18,140.45-200.27,435.13-612.28,969.03-972.42,173.58-117.09,547.01-346.44,1075.76-487.9,440.38-117.82,801.32-124.59,970.73-121.98,382.29,5.89,698.61,73.53,923.29,138.92,104.47-116.33,208.94-232.66,313.41-348.99-470.48-132.28-874.77-177.01-1167.24-191.43-302.55-14.92-641.15-29.27-1074.07,64.38-477.21,103.23-811.29,281.92-1002.92,386.26-573.61,312.31-927.51,680.46-1041.88,804.7-94.43,102.59-375.87,419.44-623.43,902.96-87.44,170.77-149.87,321.74-193.13,437.08,1381.83,1388.04,2763.66,2776.09,4145.5,4164.13v-660.7c-959.43-962.82-1918.87-1925.64-2878.3-2888.46,78.9-203.85,206.43-467.44,415.06-738.63,124.46-161.79,414.56-531.35,931.76-796.23,580.98-297.54,1127.8-298.92,1392.56-281.22,243.39,649.98,486.78,1299.95,730.16,1949.93-110.12,110.68-220.23,221.36-330.35,332.05-213.46-214.59-426.92-429.18-640.38-643.76-705.32-.38-1410.63-.75-2115.95-1.13,150.21,150.96,300.42,301.93,450.63,452.89,473.98.38,947.95.75,1421.93,1.13,288.75,289.88,577.5,579.76,866.26,869.65,300.42-301.93,600.85-603.86,901.27-905.79-335.06-835.76-670.12-1671.53-1005.17-2507.29-434.96-42.18-786.06-6.21-1025.5,35.01Z"/><path class="cls-2" d="m4769.64,7217.3c-704.75-707.76-1409.5-1415.53-2114.25-2123.29-.75-140.05-1.51-280.09-2.26-420.14-149.83-152.09-299.67-304.19-449.5-456.28v1081.97c624.19,638.49,1248.37,1276.99,1872.56,1915.48,231.15.75,462.31,1.51,693.46,2.26Z"/></svg>